<svg xmlns="http://www.w3.org/2000/svg" width="1912" height="743.33" viewBox="0 0 1912 743.33" font-family="'Helvetica Neue', Helvetica, Arial, sans-serif"><defs><marker id="arrow-new" viewBox="0 0 8 8" refX="7" refY="4" markerWidth="6" markerHeight="6" orient="auto-start-reverse"><path d="M0 0 L8 4 L0 8 z" fill="#189a5c"/></marker><marker id="arrow-removed" viewBox="0 0 8 8" refX="7" refY="4" markerWidth="6" markerHeight="6" orient="auto-start-reverse"><path d="M0 0 L8 4 L0 8 z" fill="#d8503f"/></marker><marker id="arrow-impact" viewBox="0 0 8 8" refX="7" refY="4" markerWidth="6" markerHeight="6" orient="auto-start-reverse"><path d="M0 0 L8 4 L0 8 z" fill="#7b5bd6"/></marker><marker id="arrow-neutral" viewBox="0 0 8 8" refX="7" refY="4" markerWidth="6" markerHeight="6" orient="auto-start-reverse"><path d="M0 0 L8 4 L0 8 z" fill="#a6b8d0"/></marker></defs><rect width="1912" height="743.33" fill="#fbfdff"/><text x="28" y="26" font-family="'Helvetica Neue', Helvetica, Arial, sans-serif" font-size="16" font-weight="700" fill="#182a42">asteriusit/groundplan-example</text><text x="28" y="46" font-family="'DejaVu Sans Mono', 'Courier New', monospace" font-size="11" fill="#5d7391">feat/redis-session-cache · 9f3c2a7e · 2026-07-19 · changes only</text><text x="1884" y="26" text-anchor="end" font-family="'Helvetica Neue', Helvetica, Arial, sans-serif" font-size="12" font-weight="600" fill="#a6b8d0">groundplan</text><line x1="28" y1="62" x2="1884" y2="62" stroke="#e3e9f2" stroke-width="1"/><g transform="translate(28 70)"><path d="M 248 65.33 L 302 65.33 L 302 109 L 344 109" fill="none" stroke="#a6b8d0" stroke-width="1.5" stroke-dasharray="4 3" marker-end="url(#arrow-neutral)"/><path d="M 564 109 L 660 109" fill="none" stroke="#a6b8d0" stroke-width="1.5" stroke-dasharray="4 3" marker-end="url(#arrow-neutral)"/><path d="M 564 191 L 588 191 L 588 127.67 L 660 127.67" fill="none" stroke="#189a5c" stroke-width="1.5" stroke-dasharray="4 3" marker-end="url(#arrow-new)"/><path d="M 1196 354 L 1292 354" fill="none" stroke="#a6b8d0" stroke-width="1.5" stroke-dasharray="4 3" marker-end="url(#arrow-neutral)"/><path d="M 564 205 L 1220 205 L 1220 342.8 L 1292 342.8" fill="none" stroke="#189a5c" stroke-width="1.5" stroke-dasharray="4 3" marker-end="url(#arrow-new)"/><path d="M 880 555.33 L 1230 555.33 L 1230 376.4 L 1292 376.4" fill="none" stroke="#a6b8d0" stroke-width="1.5" stroke-dasharray="4 3" marker-end="url(#arrow-neutral)"/><path d="M 880 468.67 L 904 468.67 L 904 502 L 1220 502 L 1220 365.2 L 1292 365.2" fill="none" stroke="#a6b8d0" stroke-width="1.5" stroke-dasharray="4 3" marker-end="url(#arrow-neutral)"/><path d="M 248 56 L 1292 56" fill="none" stroke="#a6b8d0" stroke-width="1.5" stroke-dasharray="4 3" marker-end="url(#arrow-neutral)"/><path d="M 1512 359.6 L 1536 359.6 L 1536 74.67 L 1608 74.67" fill="none" stroke="#7b5bd6" stroke-width="1.5" stroke-dasharray="4 3" marker-end="url(#arrow-impact)"/><path d="M 1512 56 L 1608 56" fill="none" stroke="#7b5bd6" stroke-width="1.5" stroke-dasharray="4 3" marker-end="url(#arrow-impact)"/><path d="M 880 354 L 976 354" fill="none" stroke="#a6b8d0" stroke-width="1.5" stroke-dasharray="4 3" marker-end="url(#arrow-neutral)"/><path d="M 564 219 L 588 219 L 588 248.67 L 976 248.67" fill="none" stroke="#189a5c" stroke-width="1.5" stroke-dasharray="4 3" marker-end="url(#arrow-new)"/><path d="M 880 335.33 L 904 335.33 L 904 267.33 L 976 267.33" fill="none" stroke="#a6b8d0" stroke-width="1.5" stroke-dasharray="4 3" marker-end="url(#arrow-neutral)"/><path d="M 248 74.67 L 292 74.67 L 292 205 L 344 205" fill="none" stroke="#a6b8d0" stroke-width="1.5" stroke-dasharray="4 3" marker-end="url(#arrow-neutral)"/><path d="M 248 93.33 L 272 93.33 L 272 555.33 L 660 555.33" fill="none" stroke="#a6b8d0" stroke-width="1.5" stroke-dasharray="4 3" marker-end="url(#arrow-neutral)"/><path d="M 564 344.67 L 660 344.67" fill="none" stroke="#a6b8d0" stroke-width="1.5" stroke-dasharray="4 3" marker-end="url(#arrow-neutral)"/><path d="M 564 363.33 L 588 363.33 L 588 459.33 L 660 459.33" fill="none" stroke="#a6b8d0" stroke-width="1.5" stroke-dasharray="4 3" marker-end="url(#arrow-neutral)"/><path d="M 880 450 L 976 450" fill="none" stroke="#a6b8d0" stroke-width="1.5" stroke-dasharray="4 3" marker-end="url(#arrow-neutral)"/><path d="M 248 84 L 282 84 L 282 354 L 344 354" fill="none" stroke="#a6b8d0" stroke-width="1.5" stroke-dasharray="4 3" marker-end="url(#arrow-neutral)"/><rect x="344" y="81" width="220" height="56" rx="8" fill="#ffffff" stroke="#e3e9f2" stroke-width="1.5"/><circle cx="358" cy="109" r="5" fill="#c23a63"/><text x="372" y="103" font-family="'Helvetica Neue', Helvetica, Arial, sans-serif" font-size="13" font-weight="600" fill="#182a42">key_vault</text><text x="372" y="121" font-family="'DejaVu Sans Mono', 'Courier New', monospace" font-size="11" fill="#5d7391">main</text><rect x="660" y="90.33" width="220" height="56" rx="8" fill="#e8f7ef" stroke="#189a5c" stroke-width="1.5"/><circle cx="674" cy="118.33" r="5" fill="#c23a63"/><text x="688" y="112.33" font-family="'Helvetica Neue', Helvetica, Arial, sans-serif" font-size="13" font-weight="600" fill="#182a42">key_vault_secret</text><text x="688" y="130.33" font-family="'DejaVu Sans Mono', 'Courier New', monospace" font-size="11" fill="#5d7391">redis_connection</text><rect x="1292" y="331.6" width="220" height="56" rx="8" fill="#fbf3e4" stroke="#c77e10" stroke-width="1.5"/><circle cx="1306" cy="359.6" r="5" fill="#5d7391"/><text x="1320" y="353.6" font-family="'Helvetica Neue', Helvetica, Arial, sans-serif" font-size="13" font-weight="600" fill="#182a42">linux_web_app</text><text x="1320" y="371.6" font-family="'DejaVu Sans Mono', 'Courier New', monospace" font-size="11" fill="#5d7391">api</text><rect x="1292" y="28" width="220" height="56" rx="8" fill="#ffffff" stroke="#e3e9f2" stroke-width="1.5"/><circle cx="1306" cy="56" r="5" fill="#a032b8"/><text x="1320" y="50" font-family="'Helvetica Neue', Helvetica, Arial, sans-serif" font-size="13" font-weight="600" fill="#182a42">log_analytics_workspace</text><text x="1320" y="68" font-family="'DejaVu Sans Mono', 'Courier New', monospace" font-size="11" fill="#5d7391">main</text><rect x="1608" y="37.33" width="220" height="56" rx="8" fill="#f1edfc" stroke="#7b5bd6" stroke-width="1.5"/><circle cx="1622" cy="65.33" r="5" fill="#a032b8"/><text x="1636" y="59.33" font-family="'Helvetica Neue', Helvetica, Arial, sans-serif" font-size="13" font-weight="600" fill="#182a42">monitor_diagnostic_sett…</text><text x="1636" y="77.33" font-family="'DejaVu Sans Mono', 'Courier New', monospace" font-size="11" fill="#5d7391">api</text><rect x="976" y="326" width="220" height="56" rx="8" fill="#ffffff" stroke="#e3e9f2" stroke-width="1.5"/><circle cx="990" cy="354" r="5" fill="#4f46c7"/><text x="1004" y="348" font-family="'Helvetica Neue', Helvetica, Arial, sans-serif" font-size="13" font-weight="600" fill="#182a42">postgresql_flexible_ser…</text><text x="1004" y="366" font-family="'DejaVu Sans Mono', 'Courier New', monospace" font-size="11" fill="#5d7391">main</text><rect x="976" y="230" width="220" height="56" rx="8" fill="#e8f7ef" stroke="#189a5c" stroke-width="1.5"/><circle cx="990" cy="258" r="5" fill="#5d7391"/><text x="1004" y="252" font-family="'Helvetica Neue', Helvetica, Arial, sans-serif" font-size="13" font-weight="600" fill="#182a42">private_endpoint</text><text x="1004" y="270" font-family="'DejaVu Sans Mono', 'Courier New', monospace" font-size="11" fill="#5d7391">redis</text><rect x="344" y="177" width="220" height="56" rx="8" fill="#e8f7ef" stroke="#189a5c" stroke-width="1.5"/><circle cx="358" cy="205" r="5" fill="#5d7391"/><text x="372" y="199" font-family="'Helvetica Neue', Helvetica, Arial, sans-serif" font-size="13" font-weight="600" fill="#182a42">redis_cache</text><text x="372" y="217" font-family="'DejaVu Sans Mono', 'Courier New', monospace" font-size="11" fill="#5d7391">sessions</text><rect x="28" y="46.67" width="220" height="56" rx="8" fill="#ffffff" stroke="#e3e9f2" stroke-width="1.5"/><circle cx="42" cy="74.67" r="5" fill="#5d7391"/><text x="56" y="68.67" font-family="'Helvetica Neue', Helvetica, Arial, sans-serif" font-size="13" font-weight="600" fill="#182a42">resource_group</text><text x="56" y="86.67" font-family="'DejaVu Sans Mono', 'Courier New', monospace" font-size="11" fill="#5d7391">main</text><rect x="660" y="527.33" width="220" height="56" rx="8" fill="#ffffff" stroke="#e3e9f2" stroke-width="1.5"/><circle cx="674" cy="555.33" r="5" fill="#5d7391"/><text x="688" y="549.33" font-family="'Helvetica Neue', Helvetica, Arial, sans-serif" font-size="13" font-weight="600" fill="#182a42">service_plan</text><text x="688" y="567.33" font-family="'DejaVu Sans Mono', 'Courier New', monospace" font-size="11" fill="#5d7391">main</text><rect x="28" y="142.67" width="220" height="56" rx="8" fill="#fdf1ef" stroke="#d8503f" stroke-width="1.5" stroke-dasharray="5 3"/><circle cx="42" cy="170.67" r="5" fill="#4f46c7"/><text x="56" y="164.67" font-family="'Helvetica Neue', Helvetica, Arial, sans-serif" font-size="13" font-weight="600" fill="#182a42">storage_account</text><text x="56" y="182.67" font-family="'DejaVu Sans Mono', 'Courier New', monospace" font-size="11" fill="#5d7391">legacy_sessions</text><rect x="660" y="316.67" width="220" height="56" rx="8" fill="#ffffff" stroke="#e3e9f2" stroke-width="1.5"/><circle cx="674" cy="344.67" r="5" fill="#0e8f9e"/><text x="688" y="338.67" font-family="'Helvetica Neue', Helvetica, Arial, sans-serif" font-size="13" font-weight="600" fill="#182a42">subnet</text><text x="688" y="356.67" font-family="'DejaVu Sans Mono', 'Courier New', monospace" font-size="11" fill="#5d7391">data</text><rect x="660" y="431.33" width="220" height="56" rx="8" fill="#ffffff" stroke="#e3e9f2" stroke-width="1.5"/><circle cx="674" cy="459.33" r="5" fill="#0e8f9e"/><text x="688" y="453.33" font-family="'Helvetica Neue', Helvetica, Arial, sans-serif" font-size="13" font-weight="600" fill="#182a42">subnet</text><text x="688" y="471.33" font-family="'DejaVu Sans Mono', 'Courier New', monospace" font-size="11" fill="#5d7391">web</text><rect x="976" y="422" width="220" height="56" rx="8" fill="#ffffff" stroke="#e3e9f2" stroke-width="1.5"/><circle cx="990" cy="450" r="5" fill="#0e8f9e"/><text x="1004" y="444" font-family="'Helvetica Neue', Helvetica, Arial, sans-serif" font-size="13" font-weight="600" fill="#182a42">subnet_network_security…</text><text x="1004" y="462" font-family="'DejaVu Sans Mono', 'Courier New', monospace" font-size="11" fill="#5d7391">web</text><rect x="344" y="326" width="220" height="56" rx="8" fill="#ffffff" stroke="#e3e9f2" stroke-width="1.5"/><circle cx="358" cy="354" r="5" fill="#0e8f9e"/><text x="372" y="348" font-family="'Helvetica Neue', Helvetica, Arial, sans-serif" font-size="13" font-weight="600" fill="#182a42">virtual_network</text><text x="372" y="366" font-family="'DejaVu Sans Mono', 'Courier New', monospace" font-size="11" fill="#5d7391">main</text></g><rect x="28" y="720.33" width="10" height="10" rx="2" fill="#189a5c"/><text x="44" y="729.33" font-family="'Helvetica Neue', Helvetica, Arial, sans-serif" font-size="11" fill="#5d7391">Create</text><rect x="106" y="720.33" width="10" height="10" rx="2" fill="#c77e10"/><text x="122" y="729.33" font-family="'Helvetica Neue', Helvetica, Arial, sans-serif" font-size="11" fill="#5d7391">Update</text><rect x="184" y="720.33" width="10" height="10" rx="2" fill="#d8503f"/><text x="200" y="729.33" font-family="'Helvetica Neue', Helvetica, Arial, sans-serif" font-size="11" fill="#5d7391">Delete</text><rect x="262" y="720.33" width="10" height="10" rx="2" fill="#7b5bd6"/><text x="278" y="729.33" font-family="'Helvetica Neue', Helvetica, Arial, sans-serif" font-size="11" fill="#5d7391">Impacted</text></svg>