<svg xmlns="http://www.w3.org/2000/svg" width="1912" height="751.33" viewBox="0 0 1912 751.33" font-family="'Helvetica Neue', Helvetica, Arial, sans-serif"><defs><marker id="arrow-new" viewBox="0 0 8 8" refX="7" refY="4" markerWidth="6" markerHeight="6" orient="auto-start-reverse"><path d="M0 0 L8 4 L0 8 z" fill="#189a5c"/></marker><marker id="arrow-removed" viewBox="0 0 8 8" refX="7" refY="4" markerWidth="6" markerHeight="6" orient="auto-start-reverse"><path d="M0 0 L8 4 L0 8 z" fill="#d8503f"/></marker><marker id="arrow-impact" viewBox="0 0 8 8" refX="7" refY="4" markerWidth="6" markerHeight="6" orient="auto-start-reverse"><path d="M0 0 L8 4 L0 8 z" fill="#7b5bd6"/></marker><marker id="arrow-neutral" viewBox="0 0 8 8" refX="7" refY="4" markerWidth="6" markerHeight="6" orient="auto-start-reverse"><path d="M0 0 L8 4 L0 8 z" fill="#a6b8d0"/></marker></defs><rect width="1912" height="751.33" fill="#fbfdff"/><text x="28" y="26" font-family="'Helvetica Neue', Helvetica, Arial, sans-serif" font-size="16" font-weight="700" fill="#182a42">asteriusit/groundplan-example</text><text x="28" y="46" font-family="'DejaVu Sans Mono', 'Courier New', monospace" font-size="11" fill="#5d7391">feat/redis-session-cache · 9f3c2a7e · 2026-07-19</text><text x="1884" y="26" text-anchor="end" font-family="'Helvetica Neue', Helvetica, Arial, sans-serif" font-size="12" font-weight="600" fill="#a6b8d0">groundplan</text><line x1="28" y1="62" x2="1884" y2="62" stroke="#e3e9f2" stroke-width="1"/><g transform="translate(28 70)"><path d="M 248 347.33 L 272 347.33 L 272 56 L 344 56" fill="none" stroke="#a6b8d0" stroke-width="1.5" stroke-dasharray="4 3" marker-end="url(#arrow-neutral)"/><path d="M 564 56 L 660 56" fill="none" stroke="#a6b8d0" stroke-width="1.5" stroke-dasharray="4 3" marker-end="url(#arrow-neutral)"/><path d="M 564 156.33 L 588 156.33 L 588 74.67 L 660 74.67" fill="none" stroke="#189a5c" stroke-width="1.5" stroke-dasharray="4 3" marker-end="url(#arrow-new)"/><path d="M 1196 294 L 1230 294 L 1230 540.93 L 1292 540.93" fill="none" stroke="#a6b8d0" stroke-width="1.5" stroke-dasharray="4 3" marker-end="url(#arrow-neutral)"/><path d="M 564 184.33 L 588 184.33 L 588 231.67 L 1240 231.67 L 1240 529.73 L 1292 529.73" fill="none" stroke="#189a5c" stroke-width="1.5" stroke-dasharray="4 3" marker-end="url(#arrow-new)"/><path d="M 1196 563.33 L 1292 563.33" fill="none" stroke="#a6b8d0" stroke-width="1.5" stroke-dasharray="4 3" marker-end="url(#arrow-neutral)"/><path d="M 880 371.33 L 1220 371.33 L 1220 552.13 L 1292 552.13" fill="none" stroke="#a6b8d0" stroke-width="1.5" stroke-dasharray="4 3" marker-end="url(#arrow-neutral)"/><path d="M 248 355.33 L 282 355.33 L 282 117.33 L 1292 117.33" fill="none" stroke="#a6b8d0" stroke-width="1.5" stroke-dasharray="4 3" marker-end="url(#arrow-neutral)"/><path d="M 1512 546.53 L 1608 546.53" fill="none" stroke="#7b5bd6" stroke-width="1.5" stroke-dasharray="4 3" marker-end="url(#arrow-impact)"/><path d="M 1512 117.33 L 1536 117.33 L 1536 527.87 L 1608 527.87" fill="none" stroke="#7b5bd6" stroke-width="1.5" stroke-dasharray="4 3" marker-end="url(#arrow-impact)"/><path d="M 248 379.33 L 282 379.33 L 282 476.67 L 660 476.67" fill="none" stroke="#a6b8d0" stroke-width="1.5" stroke-dasharray="4 3" marker-end="url(#arrow-neutral)"/><path d="M 880 294 L 976 294" fill="none" stroke="#a6b8d0" stroke-width="1.5" stroke-dasharray="4 3" marker-end="url(#arrow-neutral)"/><path d="M 564 170.33 L 976 170.33" fill="none" stroke="#189a5c" stroke-width="1.5" stroke-dasharray="4 3" marker-end="url(#arrow-new)"/><path d="M 880 275.33 L 904 275.33 L 904 189 L 976 189" fill="none" stroke="#a6b8d0" stroke-width="1.5" stroke-dasharray="4 3" marker-end="url(#arrow-neutral)"/><path d="M 248 363.33 L 292 363.33 L 292 170.33 L 344 170.33" fill="none" stroke="#a6b8d0" stroke-width="1.5" stroke-dasharray="4 3" marker-end="url(#arrow-neutral)"/><path d="M 248 387.33 L 272 387.33 L 272 563.33 L 976 563.33" fill="none" stroke="#a6b8d0" stroke-width="1.5" stroke-dasharray="4 3" marker-end="url(#arrow-neutral)"/><path d="M 564 362 L 588 362 L 588 284.67 L 660 284.67" fill="none" stroke="#a6b8d0" stroke-width="1.5" stroke-dasharray="4 3" marker-end="url(#arrow-neutral)"/><path d="M 564 380.67 L 660 380.67" fill="none" stroke="#a6b8d0" stroke-width="1.5" stroke-dasharray="4 3" marker-end="url(#arrow-neutral)"/><path d="M 880 476.67 L 976 476.67" fill="none" stroke="#a6b8d0" stroke-width="1.5" stroke-dasharray="4 3" marker-end="url(#arrow-neutral)"/><path d="M 880 390 L 904 390 L 904 458 L 976 458" fill="none" stroke="#a6b8d0" stroke-width="1.5" stroke-dasharray="4 3" marker-end="url(#arrow-neutral)"/><path d="M 248 371.33 L 344 371.33" fill="none" stroke="#a6b8d0" stroke-width="1.5" stroke-dasharray="4 3" marker-end="url(#arrow-neutral)"/><rect x="344" y="28" width="220" height="56" rx="8" fill="#ffffff" stroke="#e3e9f2" stroke-width="1.5"/><circle cx="358" cy="56" r="5" fill="#c23a63"/><text x="372" y="50" font-family="'Helvetica Neue', Helvetica, Arial, sans-serif" font-size="13" font-weight="600" fill="#182a42">key_vault</text><text x="372" y="68" font-family="'DejaVu Sans Mono', 'Courier New', monospace" font-size="11" fill="#5d7391">main</text><rect x="660" y="37.33" width="220" height="56" rx="8" fill="#e8f7ef" stroke="#189a5c" stroke-width="1.5"/><circle cx="674" cy="65.33" r="5" fill="#c23a63"/><text x="688" y="59.33" font-family="'Helvetica Neue', Helvetica, Arial, sans-serif" font-size="13" font-weight="600" fill="#182a42">key_vault_secret</text><text x="688" y="77.33" font-family="'DejaVu Sans Mono', 'Courier New', monospace" font-size="11" fill="#5d7391">redis_connection</text><rect x="1292" y="518.53" width="220" height="56" rx="8" fill="#fbf3e4" stroke="#c77e10" stroke-width="1.5"/><circle cx="1306" cy="546.53" r="5" fill="#5d7391"/><text x="1320" y="540.53" font-family="'Helvetica Neue', Helvetica, Arial, sans-serif" font-size="13" font-weight="600" fill="#182a42">linux_web_app</text><text x="1320" y="558.53" font-family="'DejaVu Sans Mono', 'Courier New', monospace" font-size="11" fill="#5d7391">api</text><rect x="1292" y="89.33" width="220" height="56" rx="8" fill="#ffffff" stroke="#e3e9f2" stroke-width="1.5"/><circle cx="1306" cy="117.33" r="5" fill="#a032b8"/><text x="1320" y="111.33" font-family="'Helvetica Neue', Helvetica, Arial, sans-serif" font-size="13" font-weight="600" fill="#182a42">log_analytics_workspace</text><text x="1320" y="129.33" font-family="'DejaVu Sans Mono', 'Courier New', monospace" font-size="11" fill="#5d7391">main</text><rect x="1608" y="509.2" width="220" height="56" rx="8" fill="#f1edfc" stroke="#7b5bd6" stroke-width="1.5"/><circle cx="1622" cy="537.2" r="5" fill="#a032b8"/><text x="1636" y="531.2" font-family="'Helvetica Neue', Helvetica, Arial, sans-serif" font-size="13" font-weight="600" fill="#182a42">monitor_diagnostic_sett…</text><text x="1636" y="549.2" font-family="'DejaVu Sans Mono', 'Courier New', monospace" font-size="11" fill="#5d7391">api</text><rect x="660" y="448.67" width="220" height="56" rx="8" fill="#ffffff" stroke="#e3e9f2" stroke-width="1.5"/><circle cx="674" cy="476.67" r="5" fill="#c23a63"/><text x="688" y="470.67" font-family="'Helvetica Neue', Helvetica, Arial, sans-serif" font-size="13" font-weight="600" fill="#182a42">network_security_group</text><text x="688" y="488.67" font-family="'DejaVu Sans Mono', 'Courier New', monospace" font-size="11" fill="#5d7391">web</text><rect x="976" y="266" width="220" height="56" rx="8" fill="#ffffff" stroke="#e3e9f2" stroke-width="1.5"/><circle cx="990" cy="294" r="5" fill="#4f46c7"/><text x="1004" y="288" font-family="'Helvetica Neue', Helvetica, Arial, sans-serif" font-size="13" font-weight="600" fill="#182a42">postgresql_flexible_ser…</text><text x="1004" y="306" font-family="'DejaVu Sans Mono', 'Courier New', monospace" font-size="11" fill="#5d7391">main</text><rect x="976" y="151.67" width="220" height="56" rx="8" fill="#e8f7ef" stroke="#189a5c" stroke-width="1.5"/><circle cx="990" cy="179.67" r="5" fill="#5d7391"/><text x="1004" y="173.67" font-family="'Helvetica Neue', Helvetica, Arial, sans-serif" font-size="13" font-weight="600" fill="#182a42">private_endpoint</text><text x="1004" y="191.67" font-family="'DejaVu Sans Mono', 'Courier New', monospace" font-size="11" fill="#5d7391">redis</text><rect x="344" y="142.33" width="220" height="56" rx="8" fill="#e8f7ef" stroke="#189a5c" stroke-width="1.5"/><circle cx="358" cy="170.33" r="5" fill="#5d7391"/><text x="372" y="164.33" font-family="'Helvetica Neue', Helvetica, Arial, sans-serif" font-size="13" font-weight="600" fill="#182a42">redis_cache</text><text x="372" y="182.33" font-family="'DejaVu Sans Mono', 'Courier New', monospace" font-size="11" fill="#5d7391">sessions</text><rect x="28" y="339.33" width="220" height="56" rx="8" fill="#ffffff" stroke="#e3e9f2" stroke-width="1.5"/><circle cx="42" cy="367.33" r="5" fill="#5d7391"/><text x="56" y="361.33" font-family="'Helvetica Neue', Helvetica, Arial, sans-serif" font-size="13" font-weight="600" fill="#182a42">resource_group</text><text x="56" y="379.33" font-family="'DejaVu Sans Mono', 'Courier New', monospace" font-size="11" fill="#5d7391">main</text><rect x="976" y="535.33" width="220" height="56" rx="8" fill="#ffffff" stroke="#e3e9f2" stroke-width="1.5"/><circle cx="990" cy="563.33" r="5" fill="#5d7391"/><text x="1004" y="557.33" font-family="'Helvetica Neue', Helvetica, Arial, sans-serif" font-size="13" font-weight="600" fill="#182a42">service_plan</text><text x="1004" y="575.33" font-family="'DejaVu Sans Mono', 'Courier New', monospace" font-size="11" fill="#5d7391">main</text><rect x="28" y="435.33" width="220" height="56" rx="8" fill="#fdf1ef" stroke="#d8503f" stroke-width="1.5" stroke-dasharray="5 3"/><circle cx="42" cy="463.33" r="5" fill="#4f46c7"/><text x="56" y="457.33" font-family="'Helvetica Neue', Helvetica, Arial, sans-serif" font-size="13" font-weight="600" fill="#182a42">storage_account</text><text x="56" y="475.33" font-family="'DejaVu Sans Mono', 'Courier New', monospace" font-size="11" fill="#5d7391">legacy_sessions</text><rect x="660" y="256.67" width="220" height="56" rx="8" fill="#ffffff" stroke="#e3e9f2" stroke-width="1.5"/><circle cx="674" cy="284.67" r="5" fill="#0e8f9e"/><text x="688" y="278.67" font-family="'Helvetica Neue', Helvetica, Arial, sans-serif" font-size="13" font-weight="600" fill="#182a42">subnet</text><text x="688" y="296.67" font-family="'DejaVu Sans Mono', 'Courier New', monospace" font-size="11" fill="#5d7391">data</text><rect x="660" y="352.67" width="220" height="56" rx="8" fill="#ffffff" stroke="#e3e9f2" stroke-width="1.5"/><circle cx="674" cy="380.67" r="5" fill="#0e8f9e"/><text x="688" y="374.67" font-family="'Helvetica Neue', Helvetica, Arial, sans-serif" font-size="13" font-weight="600" fill="#182a42">subnet</text><text x="688" y="392.67" font-family="'DejaVu Sans Mono', 'Courier New', monospace" font-size="11" fill="#5d7391">web</text><rect x="976" y="439.33" width="220" height="56" rx="8" fill="#ffffff" stroke="#e3e9f2" stroke-width="1.5"/><circle cx="990" cy="467.33" r="5" fill="#0e8f9e"/><text x="1004" y="461.33" font-family="'Helvetica Neue', Helvetica, Arial, sans-serif" font-size="13" font-weight="600" fill="#182a42">subnet_network_security…</text><text x="1004" y="479.33" font-family="'DejaVu Sans Mono', 'Courier New', monospace" font-size="11" fill="#5d7391">web</text><rect x="344" y="343.33" width="220" height="56" rx="8" fill="#ffffff" stroke="#e3e9f2" stroke-width="1.5"/><circle cx="358" cy="371.33" r="5" fill="#0e8f9e"/><text x="372" y="365.33" font-family="'Helvetica Neue', Helvetica, Arial, sans-serif" font-size="13" font-weight="600" fill="#182a42">virtual_network</text><text x="372" y="383.33" font-family="'DejaVu Sans Mono', 'Courier New', monospace" font-size="11" fill="#5d7391">main</text></g><rect x="28" y="728.33" width="10" height="10" rx="2" fill="#189a5c"/><text x="44" y="737.33" font-family="'Helvetica Neue', Helvetica, Arial, sans-serif" font-size="11" fill="#5d7391">Create</text><rect x="106" y="728.33" width="10" height="10" rx="2" fill="#c77e10"/><text x="122" y="737.33" font-family="'Helvetica Neue', Helvetica, Arial, sans-serif" font-size="11" fill="#5d7391">Update</text><rect x="184" y="728.33" width="10" height="10" rx="2" fill="#d8503f"/><text x="200" y="737.33" font-family="'Helvetica Neue', Helvetica, Arial, sans-serif" font-size="11" fill="#5d7391">Delete</text><rect x="262" y="728.33" width="10" height="10" rx="2" fill="#7b5bd6"/><text x="278" y="737.33" font-family="'Helvetica Neue', Helvetica, Arial, sans-serif" font-size="11" fill="#5d7391">Impacted</text></svg>